<?xml version="1.0" encoding="UTF-8" standalone="no"?>
<svg width="602px" height="502px" viewBox="0 0 602 502" version="1.1" xmlns="http://www.w3.org/2000/svg" xmlns:xlink="http://www.w3.org/1999/xlink" xmlns:sketch="http://www.bohemiancoding.com/sketch/ns">
    <!-- Generator: Sketch 3.3 (11970) - http://www.bohemiancoding.com/sketch -->
    <title>Group</title>
    <desc>Created with Sketch.</desc>
    <defs></defs>
    <g id="Page-1" stroke="none" stroke-width="1" fill="none" fill-rule="evenodd" sketch:type="MSPage">
        <g id="Untitled-2-(1)" sketch:type="MSLayerGroup" transform="translate(-345.000000, -763.000000)">
            <g id="Group" transform="translate(345.000000, 763.000000)" sketch:type="MSShapeGroup">
                <path d="M0.491,0.545 L97.62,0.545 L97.62,97.673 L0.491,97.673 L0.491,0.545 Z" id="Fill-26" fill="#4692C3"></path>
                <path d="M102.456,0.545 L199.584,0.545 L199.584,97.673 L102.456,97.673 L102.456,0.545 Z" id="Fill-27" fill="#F4F3F2"></path>
                <path d="M202.456,0.545 L299.584,0.545 L299.584,97.673 L202.456,97.673 L202.456,0.545 Z" id="Fill-28" fill="#F4F3F2"></path>
                <path d="M302.966,0.545 L400.094,0.545 L400.094,97.673 L302.966,97.673 L302.966,0.545 Z" id="Fill-29" fill="#F4F3F2"></path>
                <path d="M403.79,0.545 L500.918,0.545 L500.918,97.673 L403.79,97.673 L403.79,0.545 Z" id="Fill-30" fill="#4692C3"></path>
                <path d="M403.79,102.545 L500.918,102.545 L500.918,199.673 L403.79,199.673 L403.79,102.545 Z" id="Fill-31" fill="#1E272C"></path>
                <path d="M302.966,102.545 L400.094,102.545 L400.094,199.673 L302.966,199.673 L302.966,102.545 Z" id="Fill-32" fill="#1E272C"></path>
                <path d="M202.456,102.545 L299.584,102.545 L299.584,199.673 L202.456,199.673 L202.456,102.545 Z" id="Fill-33" fill="#1E272C"></path>
                <path d="M102.456,102.545 L199.584,102.545 L199.584,199.673 L102.456,199.673 L102.456,102.545 Z" id="Fill-34" fill="#1E272C"></path>
                <path d="M403.79,201.855 L500.918,201.855 L500.918,298.98 L403.79,298.98 L403.79,201.855 Z" id="Fill-35" fill="#1E272C"></path>
                <path d="M302.966,201.855 L400.094,201.855 L400.094,298.98 L302.966,298.98 L302.966,201.855 Z" id="Fill-36" fill="#1E272C"></path>
                <path d="M403.79,303.1 L500.918,303.1 L500.918,400.23 L403.79,400.23 L403.79,303.1 Z" id="Fill-37" fill="#1E272C"></path>
                <path d="M302.966,303.1 L400.094,303.1 L400.094,400.23 L302.966,400.23 L302.966,303.1 Z" id="Fill-38" fill="#1E272C"></path>
                <path d="M403.79,404.17 L500.918,404.17 L500.918,501.29 L403.79,501.29 L403.79,404.17 Z" id="Fill-39" fill="#1E272C"></path>
                <path d="M302.966,404.17 L400.094,404.17 L400.094,501.29 L302.966,501.29 L302.966,404.17 Z" id="Fill-40" fill="#1E272C"></path>
                <path d="M202.456,201.855 L299.584,201.855 L299.584,298.98 L202.456,298.98 L202.456,201.855 Z" id="Fill-41" fill="#1E272C"></path>
                <path d="M102.456,201.855 L199.584,201.855 L199.584,298.98 L102.456,298.98 L102.456,201.855 Z" id="Fill-42" fill="#1E272C"></path>
                <path d="M0.491,101.789 L97.62,101.789 L97.62,198.917 L0.491,198.917 L0.491,101.789 Z" id="Fill-43" fill="#4692C3"></path>
                <path d="M0.491,202.679 L97.62,202.679 L97.62,299.81 L0.491,299.81 L0.491,202.679 Z" id="Fill-44" fill="#4692C3"></path>
                <path d="M0.491,303.1 L97.62,303.1 L97.62,400.23 L0.491,400.23 L0.491,303.1 Z" id="Fill-45" fill="#4692C3"></path>
                <path d="M0.491,404.17 L97.62,404.17 L97.62,501.29 L0.491,501.29 L0.491,404.17 Z" id="Fill-46" fill="#4692C3"></path>
                <path d="M101.735,303.1 L198.863,303.1 L198.863,400.23 L101.735,400.23 L101.735,303.1 Z" id="Fill-47" fill="#4692C3"></path>
                <path d="M101.735,404.17 L198.863,404.17 L198.863,501.29 L101.735,501.29 L101.735,404.17 Z" id="Fill-48" fill="#4692C3"></path>
                <path d="M201.333,404.17 L298.461,404.17 L298.461,501.29 L201.333,501.29 L201.333,404.17 Z" id="Fill-49" fill="#4692C3"></path>
                <path d="M201.333,303.1 L298.461,303.1 L298.461,400.23 L201.333,400.23 L201.333,303.1 Z" id="Fill-50" fill="#4692C3"></path>
                <path d="M504.615,0.545 L601.743,0.545 L601.743,97.673 L504.615,97.673 L504.615,0.545 Z" id="Fill-51" fill="#4692C3"></path>
                <path d="M504.615,102.2 L601.743,102.2 L601.743,199.328 L504.615,199.328 L504.615,102.2 Z" id="Fill-52" fill="#4692C3"></path>
                <path d="M504.615,201.855 L601.743,201.855 L601.743,298.98 L504.615,298.98 L504.615,201.855 Z" id="Fill-53" fill="#4692C3"></path>
                <path d="M504.615,303.1 L601.743,303.1 L601.743,400.23 L504.615,400.23 L504.615,303.1 Z" id="Fill-54" fill="#4692C3"></path>
                <path d="M504.615,404.17 L601.743,404.17 L601.743,501.29 L504.615,501.29 L504.615,404.17 Z" id="Fill-55" fill="#4692C3"></path>
            </g>
        </g>
    </g>
</svg>